<svg width="103" height="102" viewBox="0 0 103 102" fill="none" xmlns="http://www.w3.org/2000/svg">
<g clip-path="url(#clip0_46_2322)">
<path d="M51.08 101.963C79.2448 101.963 102.077 79.3544 102.077 51.4657C102.077 23.577 79.2448 0.968716 51.08 0.968716C22.9151 0.968716 0.0830078 23.577 0.0830078 51.4657C0.0830078 79.3544 22.9151 101.963 51.08 101.963Z" fill="#1DED83"/>
<path d="M31.0514 74.8808C30.4705 74.8628 30.4524 74.8568 30.6339 74.3176C31.2087 72.592 37.8829 52.658 40.6602 44.4196C40.8478 43.8684 40.7268 43.467 40.3819 43.0955C38.0765 40.5671 36.5033 37.5892 35.0934 34.5275C34.1192 32.4005 33.3508 30.1837 32.8001 27.9009C32.6912 27.4575 32.8364 27.3257 33.1571 27.2298C34.9058 26.6906 36.6606 26.1753 38.4093 25.6181C38.7845 25.4982 38.9418 25.5282 39.087 25.9296C39.6013 27.3496 40.1096 28.7756 40.7207 30.1537C41.3077 31.4778 42.0035 32.754 42.6812 34.0422C42.9959 34.6414 43.3468 35.2286 43.722 35.7918C44.0911 36.355 44.1153 36.343 44.5086 35.7618C44.6296 35.5821 44.7204 35.3843 44.8293 35.1986C45.9971 33.2633 47.3404 31.4599 48.9621 29.8721C51.2493 27.6312 53.9057 26.0614 57.0582 25.3425C58.2744 25.0668 59.4967 24.947 60.7492 24.935C62.5947 24.9171 64.41 25.0309 66.195 25.5102C68.1434 26.0315 69.88 26.9542 71.4654 28.1944C73.3109 29.6384 74.4969 31.5198 75.2653 33.6707C75.5618 34.4976 75.6223 35.4083 75.7675 36.2831C75.8099 36.5527 75.7554 36.8403 75.7796 37.1159C75.8886 38.6438 75.6344 40.1297 75.1927 41.5736C74.7691 42.9697 74.0733 44.2519 73.1899 45.4142C71.3988 47.7629 69.0874 49.4106 66.2858 50.4052C64.7307 50.9564 63.1393 51.28 61.5116 51.5316C59.7327 51.8132 57.9537 51.7653 56.1989 51.6455C53.948 51.4837 51.7273 50.9804 49.6337 50.0637C49.1799 49.866 48.72 49.6742 48.2662 49.4765C47.7095 49.2309 47.6551 49.2429 47.4614 49.7941C47.0923 50.8426 41.8704 66.9899 41.8281 67.1037C41.7373 67.3254 41.7736 67.4572 42.0459 67.4572C42.294 67.4572 60.1623 67.4572 68.8393 67.4572C69.9345 67.4572 70.1221 67.2535 69.7772 68.6016C69.3173 70.4171 68.8937 72.2385 68.446 74.06C68.2463 74.8748 68.2402 74.8808 67.3871 74.8808C61.3604 74.8808 31.2208 74.8808 31.0333 74.8808H31.0514ZM62.032 32.1848C61.9412 32.1848 61.8444 32.1908 61.7537 32.1848C59.7387 32.035 57.875 32.4664 56.2292 33.6588C55.4063 34.2519 54.6378 34.887 53.9541 35.6659C52.2477 37.6072 51.1404 39.8541 50.1178 42.1728C50.0028 42.4364 49.9786 42.6102 50.2812 42.766C51.0799 43.1734 51.8484 43.6647 52.6713 44.0242C54.0388 44.6233 55.4668 45.0667 56.9614 45.1566C57.8448 45.2105 58.7343 45.2345 59.6298 45.2045C61.5721 45.1326 63.3753 44.6653 65.003 43.6347C67.139 42.2746 68.2947 40.3274 68.2826 37.775C68.2765 36.349 67.7017 35.0788 66.7154 34.1321C65.4508 32.9158 63.8957 32.1249 62.0381 32.1908L62.032 32.1848Z" fill="black"/>
</g>
<defs>
<clipPath id="clip0_46_2322">
<rect width="102" height="101" fill="white" transform="translate(0.0830078 0.968716)"/>
</clipPath>
</defs>
</svg>
