<svg width="99" height="32" viewBox="0 0 99 32" fill="none" xmlns="http://www.w3.org/2000/svg">
<g clip-path="url(#clip0_44_1515)">
<path d="M36.8276 8.07202H40.0687V22.7821H49.1938V25.5242H36.8276V8.07202Z" fill="white"/>
<path d="M51.612 9.4809C51.23 9.12418 51.0391 8.67919 51.0391 8.14771C51.0391 7.61624 51.23 7.17124 51.612 6.81453C51.9939 6.45781 52.4677 6.27765 53.0334 6.27765C53.5991 6.27765 54.073 6.4488 54.4549 6.7893C54.8368 7.12981 55.0278 7.55859 55.0278 8.07385C55.0278 8.62153 54.8404 9.08275 54.4675 9.45748C54.0946 9.83221 53.6154 10.0178 53.0334 10.0178C52.4515 10.0178 51.9939 9.83942 51.612 9.4809ZM51.4624 12.2103H54.5792V25.5242H51.4624V12.2103Z" fill="white"/>
<path d="M71.6818 12.2103V25.5242H68.7145V23.8036C68.1993 24.436 67.5633 24.9098 66.8066 25.2251C66.05 25.5404 65.214 25.6989 64.3006 25.6989C63.0053 25.6989 61.845 25.4161 60.8235 24.8504C59.802 24.2847 59.0039 23.4884 58.4292 22.4578C57.8563 21.4273 57.5698 20.2311 57.5698 18.8672C57.5698 17.5034 57.8563 16.3126 58.4292 15.2893C59.0021 14.2678 59.8002 13.4732 60.8235 12.9075C61.845 12.3418 63.0053 12.0608 64.3006 12.0608C65.1654 12.0608 65.9581 12.2103 66.6823 12.5094C67.4048 12.8085 68.0317 13.2498 68.565 13.83V12.2103H71.6818ZM67.4931 21.8849C68.2407 21.1211 68.6155 20.1158 68.6155 18.869C68.6155 17.6223 68.2407 16.617 67.4931 15.8532C66.7454 15.0893 65.7977 14.7055 64.6501 14.7055C63.5025 14.7055 62.5603 15.0875 61.8198 15.8532C61.0794 16.617 60.71 17.6223 60.71 18.869C60.71 20.1158 61.0794 21.1211 61.8198 21.8849C62.5585 22.6488 63.5025 23.0326 64.6501 23.0326C65.7977 23.0326 66.7436 22.6506 67.4931 21.8849Z" fill="white"/>
<path d="M96.5615 13.5201C97.5416 14.493 98.0334 15.9505 98.0334 17.8962V25.526H94.9167V18.2961C94.9167 17.1323 94.659 16.2567 94.1438 15.6658C93.6285 15.0767 92.8881 14.7812 91.9242 14.7812C90.8775 14.7812 90.0379 15.1271 89.4056 15.8153C88.7732 16.5053 88.4579 17.489 88.4579 18.77V25.526H85.3412V18.2961C85.3412 17.1323 85.0835 16.2567 84.5683 15.6658C84.053 15.0767 83.3125 14.7812 82.3487 14.7812C81.2857 14.7812 80.4408 15.1217 79.8174 15.8027C79.1941 16.4837 78.8824 17.4728 78.8824 18.77V25.526H75.7656V12.2103H78.7329V13.9056C79.2319 13.3075 79.8553 12.8499 80.6029 12.5346C81.3506 12.2193 82.1811 12.0608 83.0963 12.0608C84.0944 12.0608 84.979 12.2482 85.7519 12.6211C86.5248 12.9958 87.1355 13.5471 87.5841 14.2786C88.1318 13.5813 88.8399 13.0373 89.7028 12.6463C90.5676 12.2554 91.5224 12.0608 92.5692 12.0608C94.2483 12.0608 95.5779 12.5472 96.5579 13.5183L96.5615 13.5201Z" fill="white"/>
<path d="M15.1634 31.183C23.5492 31.183 30.3473 24.3849 30.3473 15.9991C30.3473 7.61325 23.5492 0.815186 15.1634 0.815186C6.77756 0.815186 -0.0205078 7.61325 -0.0205078 15.9991C-0.0205078 24.3849 6.77756 31.183 15.1634 31.183Z" fill="#1DED83"/>
<path d="M9.20048 23.0398C9.02753 23.0343 9.02212 23.0325 9.07617 22.8704C9.24732 22.3515 11.2345 16.3576 12.0614 13.8804C12.1173 13.7147 12.0812 13.5939 11.9786 13.4822C11.2921 12.722 10.8237 11.8266 10.404 10.906C10.1139 10.2664 9.88509 9.59979 9.72114 8.91338C9.68872 8.78006 9.73195 8.74043 9.82744 8.7116C10.3481 8.54946 10.8706 8.39452 11.3912 8.22697C11.5029 8.19094 11.5498 8.19995 11.593 8.32066C11.7461 8.74764 11.8975 9.17642 12.0794 9.59079C12.2542 9.98894 12.4614 10.3727 12.6632 10.76C12.7568 10.9402 12.8613 11.1167 12.973 11.2861C13.0829 11.4554 13.0901 11.4518 13.2072 11.2771C13.2433 11.223 13.2703 11.1636 13.3027 11.1077C13.6504 10.5258 14.0504 9.98354 14.5332 9.50611C15.2142 8.83231 16.0051 8.36029 16.9438 8.1441C17.3059 8.06122 17.6698 8.02519 18.0427 8.02159C18.5922 8.01618 19.1327 8.05041 19.6642 8.19454C20.2443 8.35128 20.7614 8.62873 21.2334 9.00166C21.7829 9.43585 22.136 10.0016 22.3648 10.6483C22.4531 10.8969 22.4711 11.1708 22.5143 11.4338C22.5269 11.5149 22.5107 11.6014 22.5179 11.6842C22.5504 12.1437 22.4747 12.5905 22.3432 13.0246C22.2171 13.4444 22.0099 13.83 21.7468 14.1795C21.2136 14.8857 20.5254 15.3811 19.6912 15.6802C19.2282 15.846 18.7544 15.9432 18.2698 16.0189C17.7401 16.1036 17.2104 16.0892 16.6879 16.0531C16.0177 16.0045 15.3566 15.8532 14.7332 15.5775C14.5981 15.5181 14.4612 15.4604 14.326 15.401C14.1603 15.3271 14.1441 15.3307 14.0864 15.4964C13.9765 15.8117 12.4217 20.667 12.4091 20.7013C12.3821 20.7679 12.3929 20.8076 12.474 20.8076C12.5479 20.8076 17.868 20.8076 20.4515 20.8076C20.7776 20.8076 20.8334 20.7463 20.7307 21.1517C20.5938 21.6976 20.4677 22.2452 20.3344 22.7929C20.2749 23.038 20.2731 23.0398 20.0191 23.0398C18.2247 23.0398 9.25093 23.0398 9.19508 23.0398H9.20048ZM18.4247 10.2015C18.3977 10.2015 18.3688 10.2033 18.3418 10.2015C17.7419 10.1565 17.187 10.2862 16.697 10.6447C16.4519 10.8231 16.2231 11.0141 16.0195 11.2483C15.5115 11.832 15.1818 12.5076 14.8773 13.2048C14.8431 13.2841 14.8359 13.3363 14.926 13.3832C15.1638 13.5057 15.3926 13.6534 15.6376 13.7615C16.0448 13.9417 16.4699 14.075 16.9149 14.102C17.178 14.1182 17.4428 14.1254 17.7095 14.1164C18.2878 14.0948 18.8246 13.9543 19.3093 13.6444C19.9452 13.2354 20.2893 12.6499 20.2857 11.8824C20.2839 11.4536 20.1128 11.0717 19.8191 10.787C19.4426 10.4213 18.9796 10.1835 18.4265 10.2033L18.4247 10.2015Z" fill="black"/>
</g>
<defs>
<clipPath id="clip0_44_1515">
<rect width="98" height="30.3696" fill="white" transform="translate(0.0336914 0.815186)"/>
</clipPath>
</defs>
</svg>
